<mxfile host="app.diagrams.net" modified="2024-11-06T16:48:30.251Z" agent="Mozilla/5.0 (Windows NT 10.0; Win64; x64) AppleWebKit/537.36 (KHTML, like Gecko) Chrome/130.0.0.0 Safari/537.36" version="24.4.0" etag="tD4oInERsJu0YUaLQwHp" type="github">
  <diagram name="Page-1" id="6q_moQY8FoS__2pyCTAO">
    <mxGraphModel>
      <root>
        <mxCell id="0" />
        <mxCell id="1" parent="0" />
      </root>
    </mxGraphModel>
  </diagram>
</mxfile>
